# xmcd
#
# Track frame offsets:
#	150
#	16534
#	36830
#	55833
#	77283
#	100451
#	112878
#	132808
#	150159
#	170481
#
# Disc length: 2626 seconds
#
# Revision: 0
# Processed by: cddbd v1.5.2PL0 Copyright (c) Steve Scherf et al.
# Submitted via: audiograbber 1.83.01
#
DISCID=630a400a
DTITLE=Great Lake Swimmers - Ongiara
DYEAR=2007
DGENRE=Country
TTITLE0=Your Rocky Spine
TTITLE1=Backstage With The Modern Dancers
TTITLE2=Catcher Song
TTITLE3=Changing Colours
TTITLE4=There Is A Light
TTITLE5=Put There By The Land
TTITLE6=I Am Part Of A Large Family
TTITLE7=Where In The World Are You
TTITLE8=Passenger Song
TTITLE9=I Became Awake
EXTD=
EXTT0=
EXTT1=
EXTT2=
EXTT3=
EXTT4=
EXTT5=
EXTT6=
EXTT7=
EXTT8=
EXTT9=
PLAYORDER=
